<?xml version="1.0" standalone="no"?>
<!DOCTYPE svg PUBLIC "-//W3C//DTD SVG 20010904//EN"
 "http://www.w3.org/TR/2001/REC-SVG-20010904/DTD/svg10.dtd">
<svg version="1.0" xmlns="http://www.w3.org/2000/svg"
 width="300.000000pt" height="303.000000pt" viewBox="0 0 300.000000 303.000000"
 preserveAspectRatio="xMidYMid meet">
<metadata>
Created by potrace 1.10, written by Peter Selinger 2001-2011
</metadata>
<g transform="translate(0.000000,303.000000) scale(0.100000,-0.100000)"
fill="#000000" stroke="none">
<path d="M1355 3000 c-4 -6 -16 -9 -28 -8 -31 4 -197 -24 -203 -33 -2 -5 -11
-6 -18 -3 -8 3 -17 1 -20 -5 -4 -6 -14 -7 -23 -4 -11 4 -14 3 -9 -5 5 -8 -1
-12 -17 -12 -13 0 -39 -5 -58 -11 -56 -19 -176 -76 -183 -88 -4 -6 -13 -11
-20 -11 -16 0 -128 -73 -146 -95 -7 -8 -18 -15 -26 -15 -7 0 -19 -9 -27 -20
-8 -11 -16 -18 -19 -15 -5 6 -167 -153 -220 -216 -48 -57 -108 -146 -108 -159
0 -5 -5 -10 -10 -10 -6 0 -15 -12 -21 -27 -5 -16 -21 -49 -35 -75 -14 -26 -25
-51 -26 -55 -1 -5 -9 -26 -20 -48 -10 -22 -21 -57 -24 -77 -4 -21 -10 -38 -14
-38 -4 0 -11 -19 -15 -42 -10 -55 -9 -51 -17 -63 -3 -5 -16 -68 -28 -140 -26
-151 -24 -345 4 -485 3 -14 7 -43 11 -65 6 -42 60 -211 73 -229 4 -6 14 -29
21 -51 20 -59 134 -255 154 -263 4 -2 7 -8 7 -14 0 -6 14 -29 32 -52 38 -50
229 -239 234 -233 3 2 19 -9 36 -25 56 -52 144 -104 299 -176 61 -29 129 -53
129 -45 0 3 7 0 15 -7 14 -12 116 -39 160 -43 11 -1 25 -5 31 -9 6 -4 45 -8
87 -10 42 -2 77 -6 77 -10 0 -10 244 -10 254 -1 7 8 22 11 82 17 23 2 50 8 60
14 11 6 32 8 47 5 17 -3 27 -1 27 6 0 7 4 10 9 6 5 -3 12 -1 16 5 3 5 18 7 32
4 18 -5 24 -3 19 5 -4 6 -1 12 6 12 7 1 22 3 34 4 58 6 344 145 344 167 0 4 9
8 20 8 11 0 20 4 20 10 0 5 13 16 30 25 16 8 40 26 54 39 13 14 26 22 29 20 3
-3 8 3 11 13 3 10 18 26 33 35 55 33 253 273 253 306 0 6 5 12 10 12 6 0 10 7
10 15 0 8 6 15 14 15 9 0 13 9 12 25 -2 13 1 22 5 19 5 -3 9 2 9 10 0 9 5 16
10 16 6 0 10 7 10 15 0 9 8 30 17 48 9 18 16 37 15 43 -1 5 6 19 16 30 9 10
17 29 16 41 -1 13 2 23 6 23 4 0 13 25 20 55 7 31 17 58 21 61 4 2 11 29 14
59 4 30 11 55 15 55 10 0 6 440 -4 490 -4 19 -9 44 -11 55 -12 61 -17 81 -22
95 -3 8 -7 20 -9 25 -2 6 -10 35 -19 65 -9 30 -19 65 -22 78 -3 12 -9 22 -14
22 -5 0 -9 9 -9 20 0 31 -134 270 -151 270 -5 0 -9 7 -9 15 0 8 -4 15 -10 15
-5 0 -10 6 -10 13 0 7 -8 20 -17 29 -10 8 -28 29 -40 44 -30 39 -91 104 -97
104 -3 0 -23 18 -45 40 -22 22 -44 40 -49 40 -5 0 -13 7 -16 16 -4 9 -9 14
-12 12 -3 -3 -19 7 -37 23 -17 16 -33 27 -35 24 -2 -2 -13 4 -24 14 -10 10
-40 29 -66 42 -26 13 -50 28 -53 32 -3 5 -8 7 -10 6 -2 -2 -26 8 -54 20 -27
13 -59 27 -70 31 -11 4 -37 15 -58 24 -21 9 -48 16 -62 16 -13 0 -25 4 -27 10
-1 5 -21 12 -43 14 -22 2 -79 13 -127 24 -47 10 -101 17 -118 14 -21 -3 -35 0
-41 9 -5 8 -9 9 -9 4 0 -7 -34 -8 -97 -4 -57 4 -99 3 -101 -3 -2 -5 -10 -4
-17 2 -9 8 -15 8 -20 0z m257 -40 c343 -28 621 -147 882 -375 129 -112 302
-362 365 -524 74 -192 96 -322 96 -571 0 -225 -8 -279 -70 -460 -105 -310
-326 -590 -603 -764 -238 -149 -563 -236 -837 -223 -614 30 -1121 405 -1324
980 -56 160 -75 280 -75 477 0 163 5 212 35 340 58 244 183 483 339 653 245
264 588 439 915 467 132 11 148 11 277 0z"/>
<path d="M1304 2704 c-381 -64 -728 -324 -894 -669 -76 -160 -113 -330 -113
-530 0 -219 41 -380 149 -583 202 -383 609 -622 1059 -622 243 0 462 68 679
210 186 122 384 383 460 608 96 281 81 610 -39 884 -142 323 -401 550 -768
672 -134 45 -368 58 -533 30z m421 -40 c44 -9 89 -20 100 -25 26 -11 106 -39
123 -43 7 -1 18 -8 24 -14 7 -7 16 -12 21 -12 14 0 189 -106 221 -134 16 -14
32 -26 36 -26 10 0 109 -98 150 -149 19 -24 41 -49 48 -56 6 -8 12 -18 12 -24
0 -6 4 -11 9 -11 5 0 20 -21 33 -47 13 -27 26 -49 31 -51 4 -2 7 -10 7 -17 0
-20 32 -85 42 -85 4 0 8 -9 8 -20 0 -11 4 -28 9 -38 15 -31 41 -119 41 -140 0
-12 5 -24 11 -28 8 -4 7 -9 -2 -15 -8 -5 -9 -9 -3 -9 14 0 19 -68 18 -230 -2
-178 -4 -210 -13 -210 -4 0 -12 -28 -18 -63 -6 -34 -22 -89 -37 -120 -14 -32
-26 -64 -26 -71 0 -7 -7 -19 -15 -26 -8 -7 -15 -17 -15 -22 0 -10 -68 -128
-79 -138 -4 -3 -31 -37 -63 -76 -66 -84 -122 -144 -133 -144 -4 0 -16 -10 -26
-22 -11 -12 -27 -26 -37 -32 -32 -19 -87 -54 -97 -63 -16 -13 -135 -70 -195
-93 -66 -26 -142 -47 -196 -54 -21 -2 -48 -8 -58 -12 -13 -5 -17 -4 -12 4 3 6
27 14 51 18 25 3 45 10 45 15 0 5 11 9 25 9 14 0 25 5 25 10 0 6 9 10 20 10
34 0 151 79 214 144 61 64 116 137 116 155 0 6 5 11 10 11 6 0 10 11 10 25 0
14 5 25 10 25 6 0 10 7 10 16 0 9 5 12 12 8 8 -5 9 -2 5 11 -4 9 -3 23 1 29
19 24 37 147 37 251 0 109 -29 275 -48 275 -5 0 -5 9 -2 20 3 11 2 20 -2 20
-5 0 -17 17 -27 38 -19 40 -25 47 -85 107 -77 76 -103 94 -199 139 -18 8 -36
16 -40 16 -4 1 -18 8 -32 15 -14 7 -68 23 -120 35 -100 22 -118 25 -215 35
-32 3 -82 12 -111 21 -28 8 -60 16 -70 18 -27 6 -134 69 -167 100 -36 34 -89
128 -106 189 -15 53 -8 229 9 235 6 2 10 11 10 19 0 35 66 138 118 186 7 7 37
35 67 64 l54 52 103 9 c128 11 249 7 353 -14z m-505 -14 c0 -5 -16 -17 -36
-26 -125 -60 -214 -227 -214 -403 0 -197 79 -327 245 -407 72 -35 142 -51 330
-79 101 -15 157 -28 242 -54 133 -40 293 -173 351 -291 80 -162 84 -410 11
-585 -73 -173 -225 -322 -382 -374 -125 -42 -277 -64 -277 -41 0 5 19 14 43
20 23 5 76 27 117 47 105 52 187 136 238 245 47 98 62 161 62 266 0 183 -78
312 -237 394 -82 42 -153 62 -298 83 -383 55 -570 186 -640 447 -27 101 -18
256 22 369 48 138 127 243 235 313 22 14 176 85 186 86 1 0 2 -4 2 -10z m-353
-168 c-10 -10 -17 -26 -17 -35 0 -9 -3 -17 -8 -17 -15 0 -71 -116 -92 -190
-30 -108 -36 -228 -16 -327 16 -82 48 -167 66 -178 6 -4 8 -11 5 -16 -4 -5 -2
-9 4 -9 5 0 12 -8 15 -17 6 -19 91 -113 101 -113 4 0 21 -11 38 -24 31 -23
130 -72 192 -95 35 -12 217 -47 294 -56 30 -4 64 -10 75 -15 12 -4 23 -8 26
-8 44 -1 187 -64 203 -89 4 -7 12 -13 18 -13 11 0 68 -61 69 -73 0 -5 11 -23
25 -41 14 -18 25 -42 25 -53 0 -11 3 -23 7 -27 22 -22 21 -162 -2 -261 -10
-44 -21 -82 -24 -85 -3 -3 -17 -25 -30 -50 -26 -51 -90 -124 -136 -157 -55
-39 -143 -83 -165 -83 -11 0 -32 -12 -45 -26 -23 -25 -23 -28 -9 -55 14 -28
14 -29 -8 -30 -81 -3 -207 16 -308 46 -30 9 -63 17 -72 18 -10 1 -18 4 -18 8
0 4 -17 13 -37 20 -39 12 -117 52 -188 97 -80 50 -124 91 -282 259 -13 13 -23
26 -23 29 0 6 -71 117 -79 124 -3 3 -7 12 -9 20 -2 8 -14 39 -28 68 -13 29
-24 59 -24 67 0 7 -4 17 -10 20 -5 3 -10 15 -10 25 0 10 -4 20 -9 22 -5 2 -17
48 -27 103 -18 102 -26 368 -12 430 12 54 16 68 46 185 9 36 55 143 72 170 5
8 20 37 34 63 13 27 38 65 54 85 17 21 46 56 65 79 19 23 37 40 40 37 3 -3 8
3 11 14 4 10 18 25 31 32 14 7 25 17 25 21 0 5 21 23 48 40 26 18 50 37 53 42
5 8 46 33 58 36 2 1 -3 -7 -12 -17z"/>
<path d="M1525 2432 c-2 -2 -29 -10 -62 -18 -32 -8 -62 -16 -68 -17 -27 -8
-95 -49 -95 -57 0 -6 -7 -10 -15 -10 -9 0 -18 -7 -21 -15 -4 -8 -10 -12 -15
-9 -5 3 -9 -2 -9 -10 0 -8 -6 -19 -14 -23 -25 -15 -73 -153 -60 -174 3 -6 7
-25 8 -42 3 -39 31 -99 56 -122 10 -9 37 -19 59 -22 43 -6 50 -1 136 98 29 33
96 65 180 85 49 11 177 13 220 2 22 -5 48 -9 57 -9 9 0 22 -7 29 -15 6 -8 17
-14 24 -14 7 0 31 -21 54 -47 105 -121 98 -116 139 -110 71 12 87 60 86 257 0
113 -7 150 -32 176 -14 13 -32 24 -41 24 -9 0 -28 6 -43 14 -15 8 -42 16 -60
17 -18 2 -38 7 -44 11 -7 5 -31 10 -55 12 -24 2 -44 5 -44 6 0 1 -16 3 -35 5
-19 1 -35 3 -35 5 0 4 -296 6 -300 2z m386 -51 c57 -11 140 -31 184 -44 l80
-24 3 -104 c2 -57 0 -141 -3 -186 l-7 -83 -49 0 c-38 0 -49 4 -49 16 0 23 -47
84 -88 117 -111 86 -359 93 -517 15 -54 -27 -102 -75 -116 -115 -8 -25 -16
-33 -34 -33 -70 0 -111 65 -109 175 2 127 106 228 279 271 80 20 305 17 426
-5z"/>
<path d="M760 1275 c-7 -8 -16 -12 -21 -9 -5 3 -9 2 -8 -3 1 -4 -1 -16 -4 -25
-28 -74 -30 -86 -31 -229 l-1 -126 30 -26 c17 -15 38 -27 48 -27 9 0 17 -5 17
-11 0 -5 3 -8 8 -5 4 2 46 -3 92 -12 113 -22 247 -20 323 7 58 20 136 76 137
98 0 6 8 18 18 25 49 34 54 209 8 266 -36 45 -64 71 -69 65 -4 -3 -15 1 -25
10 -16 14 -21 15 -45 2 -33 -17 -51 -35 -55 -55 -2 -8 -13 -26 -25 -38 -73
-79 -201 -71 -246 16 -32 61 -67 92 -105 92 -19 0 -39 -7 -46 -15z m126 -119
c25 -40 84 -66 146 -66 93 1 161 45 190 126 6 19 19 34 27 34 25 0 79 -43 100
-80 64 -114 19 -241 -110 -310 -58 -31 -73 -35 -165 -38 -103 -4 -229 14 -305
45 -34 13 -37 18 -43 69 -7 63 8 213 27 270 12 35 18 40 53 44 38 5 39 4 51
-31 6 -20 19 -49 29 -63z"/>
</g>
</svg>
